<?xml version="1.0" encoding="utf-8"?><!DOCTYPE svg  PUBLIC '-//W3C//DTD SVG 1.1//EN'  'http://www.w3.org/Graphics/SVG/1.1/DTD/svg11.dtd'><svg viewBox="0 0 512 512" xmlns="http://www.w3.org/2000/svg" xmlns:xlink="http://www.w3.org/1999/xlink"><style>:root>svg{display:none}:root>svg:target{display:block}</style><svg viewBox="0 0 32 32" id="close" xmlns="http://www.w3.org/2000/svg"><path d="M.086 28.25L28.336 0l3.535 3.536-28.25 28.25z"/><path d="M3.535.173l28.077 28.076-3.536 3.536L0 3.709z"/></svg><svg viewBox="0 0 512 512" id="fb" xmlns="http://www.w3.org/2000/svg"><path d="M308.3 508.5c-2.5.1-4.1.3-5.7.3-34.2 0-68.3-.1-102.5.1-4.8 0-6.1-1.3-6.1-6.1.1-79.6.1-159.3.1-238.9V257H139v-85h5.4c15 0 30-.1 45 .1 3.8 0 4.8-1.1 4.8-4.8-.2-22.3-.2-44.7 0-67 .1-15.6 2.6-30.8 9.8-44.9 10.3-19.9 26.6-32.8 47.2-40.8 16.8-6.6 34.5-9 52.3-9.3 29-.4 58-.2 87-.3 2.7 0 4.9-.1 4.9 3.7-.1 27.5-.1 55-.1 82.5 0 .3-.1.6-.5 1.9h-5.5c-18 0-36-.1-54 0-10.4 0-18.8 4.2-24.1 13.3-1.6 2.7-2.6 6.2-2.6 9.4-.3 17 0 34-.2 51 0 4 1.2 5.1 5.1 5.1 25-.2 50-.1 75-.1h7.3c-3.5 28.6-6.9 56.6-10.4 84.9h-77.1v251.8z"/></svg><svg viewBox="0 0 24 24" id="inst" xmlns="http://www.w3.org/2000/svg"><path d="M8 3C5.243 3 3 5.243 3 8v8c0 2.757 2.243 5 5 5h8c2.757 0 5-2.243 5-5V8c0-2.757-2.243-5-5-5H8zm0 2h8c1.654 0 3 1.346 3 3v8c0 1.654-1.346 3-3 3H8c-1.654 0-3-1.346-3-3V8c0-1.654 1.346-3 3-3zm9 1a1 1 0 00-1 1 1 1 0 001 1 1 1 0 001-1 1 1 0 00-1-1zm-5 1c-2.757 0-5 2.243-5 5s2.243 5 5 5 5-2.243 5-5-2.243-5-5-5zm0 2c1.654 0 3 1.346 3 3s-1.346 3-3 3-3-1.346-3-3 1.346-3 3-3z"/></svg><svg viewBox="0 0 512 512" id="twitter" xmlns="http://www.w3.org/2000/svg"><path d="M4 440.5c55.6 5 105.7-9 151.3-43.2-47.7-4.2-79.6-28-97.4-72.6 15.6 1.9 30.2 2.4 45.7-1.8-51.4-16-78.8-49.6-82.5-103.8 15.4 7.2 29.9 12.4 47 12.6-30.5-22.9-46.1-52.6-45.5-90 .3-17.2 4.9-33.4 14-48.7C93.1 159.1 164 195.7 251.3 201.8c-.5-3.8-.8-6.8-1.2-9.9-7.2-55.4 28.8-105.8 83.8-116.3 34.5-6.6 65 2.5 90.8 26.3 4 3.6 7.4 4.4 12.4 3.1 20.1-5.1 39.2-12.5 57.7-22.5-7.1 23.4-21.7 41-41.5 55.8 4.5-.8 9.1-1.4 13.6-2.3 4.7-1 9.4-2.1 14.1-3.4 4.5-1.2 8.9-2.6 13.3-4.1 4.5-1.5 9-3.2 14.3-4.1-2.6 3.6-5.1 7.4-7.9 10.9-11.6 14.7-25 27.6-39.7 39.1-1.5 1.2-2.8 3.8-2.7 5.6.8 35.5-4.2 70.1-15.7 103.7-22.6 66.2-62 119.8-121.1 158.1-29.2 18.9-61.1 31.3-95.2 38.5-33.8 7.1-67.8 8.4-101.9 4.4-34.2-4-66.7-14.1-97.3-29.9-8.1-4.1-15.9-8.7-23.8-13.1.3-.4.5-.8.7-1.2z"/></svg><svg viewBox="0 0 48 48" id="vk" xmlns="http://www.w3.org/2000/svg"><path d="M45.763 35.202c-1.797-3.234-6.426-7.12-8.337-8.811a1.242 1.242 0 01-.103-1.776c3.647-3.919 6.564-8.422 7.568-11.143.443-1.202-.474-2.472-1.766-2.472h-3.753c-1.237 0-1.961.444-2.306 1.151-3.031 6.211-5.631 8.899-7.451 10.47-1.019.88-2.608.151-2.608-1.188v-8.28a2.084 2.084 0 00-2.095-2.075L18.056 11c-.863 0-1.356.977-.838 1.662l1.132 1.625c.426.563.656 1.248.656 1.951L19 23.556c0 1.273-1.543 1.895-2.459 1.003-3.099-3.018-5.788-9.181-6.756-12.128A2.087 2.087 0 007.8 11l-3.697-.009c-1.387 0-2.401 1.315-2.024 2.639C5.457 25.487 12.388 36.767 24.74 37.99c1.217.12 2.267-.86 2.267-2.073v-3.846c0-1.103.865-2.051 1.977-2.079l.117-.001c3.267 0 6.926 4.755 8.206 6.979a2.07 2.07 0 001.8 1.03h4.973c1.451 0 2.382-1.539 1.683-2.798z"/></svg></svg>